# xmcd CD database file
#
# Track frame offsets:
#	150
#	31060
#	53897
#	84967
#	117150
#	146975
#	171075
#	209277
#	247222
#
# Disc length: 3577 seconds
#
# Revision: 1
# Processed by: cddbd v1.5.1PL2 Copyright (c) Steve Scherf et al.
# Submitted via: CDex 1.51
#
DISCID=7b0df709
DTITLE=Donald Byrd/Pepper Adams - The Complete Blue Note Donald Byrd/Pepper Adams Studio Sessions [CD1]
DYEAR=1900
DGENRE=Jazz
TTITLE0=Lover come back to me
TTITLE1=When your love has gone
TTITLE2=Sudwest Funk
TTITLE3=Paul's Pal
TTITLE4=Off to the races
TTITLE5=Down Tempo
TTITLE6=Withchcraft
TTITLE7=Here am I
TTITLE8=Devil whip
EXTD=
EXTT0=
EXTT1=
EXTT2=
EXTT3=
EXTT4=
EXTT5=
EXTT6=
EXTT7=
EXTT8=
PLAYORDER=
